<svg xmlns="http://www.w3.org/2000/svg" viewBox="0 0 800 700">
  <!-- Background -->
  <rect width="800" height="700" fill="#f8f9fa" />
  
  <!-- Title -->
  <text x="400" y="30" font-family="Arial" font-size="22" text-anchor="middle" fill="#1a1a1a" font-weight="bold">CUDA Variables Mapping Diagram</text>
  
  <!-- The Image (Grid of Pixels) -->
  <rect x="50" y="60" width="500" height="320" fill="#f5f5f5" stroke="#333" stroke-width="2" rx="2" />
  <text x="300" y="55" font-family="Arial" font-size="16" text-anchor="middle" fill="#333" font-weight="bold">Image (62×76 pixels)</text>
  
  <!-- Block Grid Lines -->
  <!-- Vertical block boundaries -->
  <line x1="50" y1="60" x2="50" y2="380" stroke="#333" stroke-width="2" />
  <line x1="146" y1="60" x2="146" y2="380" stroke="#3f51b5" stroke-width="2" stroke-dasharray="5 2" />
  <line x1="242" y1="60" x2="242" y2="380" stroke="#3f51b5" stroke-width="2" stroke-dasharray="5 2" />
  <line x1="338" y1="60" x2="338" y2="380" stroke="#3f51b5" stroke-width="2" stroke-dasharray="5 2" />
  <line x1="434" y1="60" x2="434" y2="380" stroke="#3f51b5" stroke-width="2" stroke-dasharray="5 2" />
  <line x1="550" y1="60" x2="550" y2="380" stroke="#333" stroke-width="2" />
  
  <!-- Horizontal block boundaries -->
  <line x1="50" y1="60" x2="550" y2="60" stroke="#333" stroke-width="2" />
  <line x1="50" y1="140" x2="550" y2="140" stroke="#3f51b5" stroke-width="2" stroke-dasharray="5 2" />
  <line x1="50" y1="220" x2="550" y2="220" stroke="#3f51b5" stroke-width="2" stroke-dasharray="5 2" />
  <line x1="50" y1="300" x2="550" y2="300" stroke="#3f51b5" stroke-width="2" stroke-dasharray="5 2" />
  <line x1="50" y1="380" x2="550" y2="380" stroke="#333" stroke-width="2" />
  
  <!-- blockIdx labels -->
  <text x="98" y="100" font-family="Arial" font-size="14" text-anchor="middle" fill="#3f51b5" font-weight="bold">Block(0,0)</text>
  <text x="194" y="100" font-family="Arial" font-size="14" text-anchor="middle" fill="#3f51b5" font-weight="bold">Block(1,0)</text>
  <text x="290" y="100" font-family="Arial" font-size="14" text-anchor="middle" fill="#3f51b5" font-weight="bold">Block(2,0)</text>
  
  <text x="98" y="180" font-family="Arial" font-size="14" text-anchor="middle" fill="#3f51b5" font-weight="bold">Block(0,1)</text>
  <text x="194" y="180" font-family="Arial" font-size="14" text-anchor="middle" fill="#3f51b5" font-weight="bold">Block(1,1)</text>
  
  <text x="98" y="260" font-family="Arial" font-size="14" text-anchor="middle" fill="#3f51b5" font-weight="bold">Block(0,2)</text>
  
  <!-- blockIdx.x and blockIdx.y arrows and labels -->
  <line x1="98" y1="170" x2="290" y2="170" stroke="#d32f2f" stroke-width="2" marker-end="url(#red-arrow)" />
  <text x="200" y="165" font-family="Arial" font-size="16" text-anchor="middle" fill="#d32f2f" font-weight="bold">blockIdx.x increases →</text>
  
  <line x1="90" y1="100" x2="90" y2="260" stroke="#009688" stroke-width="2" marker-end="url(#green-arrow)" />
  <text x="90" y="180" font-family="Arial" font-size="16" text-anchor="middle" fill="#009688" font-weight="bold" transform="rotate(-90,90,180)">blockIdx.y increases ↓</text>
  
  <!-- blockDim.x and blockDim.y indicators -->
  <line x1="146" y1="70" x2="50" y2="70" stroke="#9c27b0" stroke-width="2" marker-end="url(#purple-arrow)" />
  <line x1="50" y1="70" x2="50" y2="140" stroke="#9c27b0" stroke-width="2" marker-end="url(#purple-arrow)" />
  <text x="98" y="50" font-family="Arial" font-size="14" text-anchor="middle" fill="#9c27b0" font-weight="bold">blockDim.x = 16</text>
  <text x="35" y="100" font-family="Arial" font-size="14" text-anchor="middle" fill="#9c27b0" font-weight="bold" transform="rotate(-90,35,100)">blockDim.y = 16</text>
  
  <!-- Zoom in to Block (1,0) -->
  <rect x="150" y="400" width="500" height="280" fill="#e3f2fd" stroke="#1976d2" stroke-width="2" rx="5" />
  <text x="400" y="420" font-family="Arial" font-size="16" text-anchor="middle" fill="#1976d2" font-weight="bold">Zoom: Inside Block (1,0)</text>
  
  <!-- Grid of Threads within the block -->
  <rect x="180" y="440" width="410" height="210" fill="#bbdefb" stroke="#1976d2" stroke-width="1" />
  
  <!-- Thread grid lines - simplified to show concept (not all 16x16 lines) -->
  <!-- Vertical lines -->
  <line x1="205" y1="440" x2="205" y2="650" stroke="#90caf9" stroke-width="1" stroke-dasharray="2 1" />
  <line x1="230" y1="440" x2="230" y2="650" stroke="#90caf9" stroke-width="1" stroke-dasharray="2 1" />
  <line x1="255" y1="440" x2="255" y2="650" stroke="#90caf9" stroke-width="1" stroke-dasharray="2 1" />
  <!-- More lines would be here -->
  <line x1="540" y1="440" x2="540" y2="650" stroke="#90caf9" stroke-width="1" stroke-dasharray="2 1" />
  <line x1="565" y1="440" x2="565" y2="650" stroke="#90caf9" stroke-width="1" stroke-dasharray="2 1" />
  
  <!-- Horizontal lines -->
  <line x1="180" y1="465" x2="590" y2="465" stroke="#90caf9" stroke-width="1" stroke-dasharray="2 1" />
  <line x1="180" y1="490" x2="590" y2="490" stroke="#90caf9" stroke-width="1" stroke-dasharray="2 1" />
  <line x1="180" y1="515" x2="590" y2="515" stroke="#90caf9" stroke-width="1" stroke-dasharray="2 1" />
  <!-- More lines would be here -->
  <line x1="180" y1="625" x2="590" y2="625" stroke="#90caf9" stroke-width="1" stroke-dasharray="2 1" />
  
  <!-- Key thread positions -->
  <circle cx="192.5" cy="452.5" r="5" fill="#d32f2f" />
  <text x="192.5" cy="452.5" font-family="Arial" font-size="10" text-anchor="middle" fill="white" font-weight="bold">0,0</text>
  
  <circle cx="217.5" cy="452.5" r="5" fill="#ff5722" />
  <text x="217.5" cy="452.5" font-family="Arial" font-size="10" text-anchor="middle" fill="white" font-weight="bold">1,0</text>
  
  <circle cx="192.5" cy="477.5" r="5" fill="#673ab7" />
  <text x="192.5" cy="477.5" font-family="Arial" font-size="10" text-anchor="middle" fill="white" font-weight="bold">0,1</text>
  
  <circle cx="577.5" cy="637.5" r="5" fill="#009688" />
  <text x="577.5" cy="637.5" font-family="Arial" font-size="10" text-anchor="middle" fill="white" font-weight="bold">15,15</text>
  
  <!-- threadIdx.x and threadIdx.y arrows and labels -->
  <line x1="192.5" y1="422" x2="565" y2="422" stroke="#ff5722" stroke-width="2" marker-end="url(#orange-arrow)" />
  <text x="385" y="418" font-family="Arial" font-size="14" text-anchor="middle" fill="#ff5722" font-weight="bold">threadIdx.x increases →</text>
  
  <line x1="170" y1="452.5" x2="170" y2="637.5" stroke="#673ab7" stroke-width="2" marker-end="url(#purple-arrow)" />
  <text x="170" y="545" font-family="Arial" font-size="14" text-anchor="middle" fill="#673ab7" font-weight="bold" transform="rotate(-90,170,545)">threadIdx.y increases ↓</text>
  
  <!-- Pixel coordinate calculation example -->
  <rect x="50" y="450" width="80" height="30" fill="#fff9c4" stroke="#fbc02d" stroke-width="1" rx="3" />
  <text x="90" y="470" font-family="Arial" font-size="12" text-anchor="middle" fill="#333">Pixel(16,0)</text>
  
  <line x1="130" y1="465" x2="170" y2="465" stroke="#333" stroke-width="1" marker-end="url(#black-arrow)" />
  
  <rect x="50" y="490" width="80" height="70" fill="#ffecb3" stroke="#ffa000" stroke-width="1" rx="3" />
  <text x="90" y="510" font-family="Arial" font-size="12" text-anchor="middle" fill="#333" font-weight="bold">How calculated:</text>
  <text x="90" y="530" font-family="Arial" font-size="10" text-anchor="middle" fill="#333">X = 1×16 + 0 = 16</text>
  <text x="90" y="550" font-family="Arial" font-size="10" text-anchor="middle" fill="#333">Y = 0×16 + 0 = 0</text>
  
  <!-- Key calculation formulas -->
  <rect x="150" y="70" width="250" height="50" fill="#fff3e0" stroke="#e65100" stroke-width="2" rx="5" fill-opacity="0.9" />
  <text x="275" y="95" font-family="Arial" font-size="14" text-anchor="middle" fill="#e65100" font-weight="bold">X = blockIdx.x × blockDim.x + threadIdx.x</text>
  <text x="275" y="115" font-family="Arial" font-size="14" text-anchor="middle" fill="#e65100" font-weight="bold">Y = blockIdx.y × blockDim.y + threadIdx.y</text>
  
  <!-- Defs for arrows -->
  <defs>
    <marker id="red-arrow" markerWidth="10" markerHeight="7" refX="9" refY="3.5" orient="auto">
      <polygon points="0 0, 10 3.5, 0 7" fill="#d32f2f"/>
    </marker>
    <marker id="green-arrow" markerWidth="10" markerHeight="7" refX="9" refY="3.5" orient="auto">
      <polygon points="0 0, 10 3.5, 0 7" fill="#009688"/>
    </marker>
    <marker id="purple-arrow" markerWidth="10" markerHeight="7" refX="9" refY="3.5" orient="auto">
      <polygon points="0 0, 10 3.5, 0 7" fill="#9c27b0"/>
    </marker>
    <marker id="orange-arrow" markerWidth="10" markerHeight="7" refX="9" refY="3.5" orient="auto">
      <polygon points="0 0, 10 3.5, 0 7" fill="#ff5722"/>
    </marker>
    <marker id="black-arrow" markerWidth="10" markerHeight="7" refX="9" refY="3.5" orient="auto">
      <polygon points="0 0, 10 3.5, 0 7" fill="#333"/>
    </marker>
  </defs>
</svg>

